<svg xmlns="http://www.w3.org/2000/svg" xmlns:xlink="http://www.w3.org/1999/xlink" width="3000" zoomAndPan="magnify" viewBox="0 0 2250 2250.000011" height="3000" preserveAspectRatio="xMidYMid meet" version="1.0"><defs><g/></defs><g fill="#ffffff" fill-opacity="1"><g transform="translate(33.320766, 2195.829708)"><g><path d="M 129.0625 -2175.546875 C 172.082031 -2173.503906 228.414062 -2171.457031 298.0625 -2169.40625 C 367.71875 -2167.351562 436.347656 -2166.328125 503.953125 -2166.328125 C 600.234375 -2166.328125 692.414062 -2167.351562 780.5 -2169.40625 C 868.59375 -2171.457031 931.078125 -2172.484375 967.953125 -2172.484375 C 1133.890625 -2172.484375 1271.65625 -2148.921875 1381.25 -2101.796875 C 1490.84375 -2054.679688 1572.785156 -1990.664062 1627.078125 -1909.75 C 1681.367188 -1828.832031 1708.515625 -1738.179688 1708.515625 -1637.796875 C 1708.515625 -1576.335938 1696.222656 -1510.785156 1671.640625 -1441.140625 C 1647.054688 -1371.492188 1604.546875 -1305.941406 1544.109375 -1244.484375 C 1483.679688 -1183.035156 1401.226562 -1132.335938 1296.75 -1092.390625 C 1192.269531 -1052.441406 1060.132812 -1032.46875 900.34375 -1032.46875 L 605.359375 -1032.46875 L 605.359375 -1093.921875 L 869.625 -1093.921875 C 1015.070312 -1093.921875 1126.203125 -1116.96875 1203.015625 -1163.0625 C 1279.835938 -1209.15625 1332.078125 -1270.613281 1359.734375 -1347.4375 C 1387.390625 -1424.257812 1401.21875 -1509.78125 1401.21875 -1604 C 1401.21875 -1765.832031 1362.804688 -1891.304688 1285.984375 -1980.421875 C 1209.171875 -2069.535156 1077.550781 -2114.09375 891.125 -2114.09375 C 796.894531 -2114.09375 735.4375 -2096.679688 706.75 -2061.859375 C 678.070312 -2027.035156 663.734375 -1956.359375 663.734375 -1849.828125 L 663.734375 -325.71875 C 663.734375 -251.96875 669.878906 -196.65625 682.171875 -159.78125 C 694.460938 -122.914062 718.53125 -98.335938 754.375 -86.046875 C 790.226562 -73.753906 842.984375 -65.554688 912.640625 -61.453125 L 912.640625 0 C 865.523438 -4.09375 806.628906 -6.648438 735.953125 -7.671875 C 665.273438 -8.703125 594.085938 -9.21875 522.390625 -9.21875 C 442.492188 -9.21875 367.71875 -8.703125 298.0625 -7.671875 C 228.414062 -6.648438 172.082031 -4.09375 129.0625 0 L 129.0625 -61.453125 C 198.707031 -65.554688 251.457031 -73.753906 287.3125 -86.046875 C 323.164062 -98.335938 347.238281 -122.914062 359.53125 -159.78125 C 371.820312 -196.65625 377.96875 -251.96875 377.96875 -325.71875 L 377.96875 -1849.828125 C 377.96875 -1925.628906 371.820312 -1981.453125 359.53125 -2017.296875 C 347.238281 -2053.148438 323.164062 -2077.734375 287.3125 -2091.046875 C 251.457031 -2104.359375 198.707031 -2112.039062 129.0625 -2114.09375 Z M 617.640625 -1084.703125 C 728.265625 -1080.609375 815.328125 -1076 878.828125 -1070.875 C 942.335938 -1065.75 994.066406 -1061.140625 1034.015625 -1057.046875 C 1073.960938 -1052.953125 1112.375 -1047.832031 1149.25 -1041.6875 C 1286.5 -1019.144531 1385.335938 -977.65625 1445.765625 -917.21875 C 1506.203125 -856.789062 1550.765625 -763.070312 1579.453125 -636.0625 L 1656.265625 -322.65625 C 1676.753906 -232.507812 1697.753906 -167.460938 1719.265625 -127.515625 C 1740.773438 -87.578125 1774.0625 -68.628906 1819.125 -70.671875 C 1853.957031 -72.722656 1883.148438 -83.988281 1906.703125 -104.46875 C 1930.265625 -124.957031 1955.363281 -152.613281 1982 -187.4375 L 2028.09375 -153.640625 C 1985.070312 -90.140625 1940.515625 -41.488281 1894.421875 -7.6875 C 1848.328125 26.113281 1783.285156 43.015625 1699.296875 43.015625 C 1623.492188 43.015625 1556.910156 20.484375 1499.546875 -24.578125 C 1442.191406 -69.648438 1399.175781 -157.738281 1370.5 -288.84375 L 1302.890625 -596.125 C 1284.453125 -684.207031 1263.453125 -760.515625 1239.890625 -825.046875 C 1216.335938 -889.578125 1183.5625 -940.28125 1141.5625 -977.15625 C 1099.570312 -1014.03125 1037.601562 -1032.46875 955.65625 -1032.46875 L 623.796875 -1032.46875 Z M 617.640625 -1084.703125 "/></g></g></g></svg>