<svg xmlns="http://www.w3.org/2000/svg" xmlns:xlink="http://www.w3.org/1999/xlink" width="1080" zoomAndPan="magnify" viewBox="0 0 810 809.999993" height="1080" preserveAspectRatio="xMidYMid meet" version="1.0"><defs><filter x="0%" y="0%" width="100%" height="100%" id="92cbe1c344"><feColorMatrix values="0 0 0 0 1 0 0 0 0 1 0 0 0 0 1 0 0 0 1 0" color-interpolation-filters="sRGB"/></filter><clipPath id="3b220db704"><path d="M 462 251 L 466 251 L 466 255 L 462 255 Z M 462 251 " clip-rule="nonzero"/></clipPath><clipPath id="2159728f6f"><path d="M 456.640625 252.667969 C 456.640625 256.746094 459.945312 260.050781 464.023438 260.050781 C 468.101562 260.050781 471.40625 256.746094 471.40625 252.667969 C 471.40625 248.589844 468.101562 245.285156 464.023438 245.285156 C 459.945312 245.285156 456.640625 248.589844 456.640625 252.667969 Z M 456.640625 252.667969 " clip-rule="nonzero"/></clipPath><clipPath id="b328d992d5"><path d="M 456.640625 245.285156 L 471.640625 245.285156 L 471.640625 260.285156 L 456.640625 260.285156 Z M 456.640625 245.285156 " clip-rule="nonzero"/></clipPath><clipPath id="820409ca97"><path d="M 456.640625 252.667969 C 456.640625 256.746094 459.945312 260.050781 464.023438 260.050781 C 468.101562 260.050781 471.40625 256.746094 471.40625 252.667969 C 471.40625 248.589844 468.101562 245.285156 464.023438 245.285156 C 459.945312 245.285156 456.640625 248.589844 456.640625 252.667969 Z M 456.640625 252.667969 " clip-rule="nonzero"/></clipPath><mask id="bc7beb539b"><g filter="url(#92cbe1c344)"><rect x="-81" width="972" fill="#000000" y="-80.999999" height="971.999992" fill-opacity="0.2"/></g></mask><clipPath id="fda4f1fcf7"><path d="M 0.601562 0.320312 L 224 0.320312 L 224 514.878906 L 0.601562 514.878906 Z M 0.601562 0.320312 " clip-rule="nonzero"/></clipPath><clipPath id="2e1d46390c"><rect x="0" width="225" y="0" height="515"/></clipPath><mask id="e332de2222"><g filter="url(#92cbe1c344)"><rect x="-81" width="972" fill="#000000" y="-80.999999" height="971.999992" fill-opacity="0.2"/></g></mask><clipPath id="d63e0a45db"><path d="M 0.078125 1 L 398.238281 1 L 398.238281 254 L 0.078125 254 Z M 0.078125 1 " clip-rule="nonzero"/></clipPath><clipPath id="f63e9189f9"><rect x="0" width="399" y="0" height="256"/></clipPath><clipPath id="0cd630d7f9"><path d="M 123 0 L 681.066406 0 L 681.066406 765 L 123 765 Z M 123 0 " clip-rule="nonzero"/></clipPath></defs><g clip-path="url(#3b220db704)"><g clip-path="url(#2159728f6f)"><path fill="#36496d" d="M 464.023438 251.191406 C 463.207031 251.191406 462.546875 251.851562 462.546875 252.667969 C 462.546875 253.480469 463.207031 254.144531 464.023438 254.144531 C 464.835938 254.144531 465.5 253.480469 465.5 252.667969 C 465.5 251.851562 464.835938 251.191406 464.023438 251.191406 Z M 464.023438 253.652344 C 463.480469 253.652344 463.039062 253.210938 463.039062 252.667969 C 463.039062 252.125 463.480469 251.683594 464.023438 251.683594 C 464.566406 251.683594 465.007812 252.125 465.007812 252.667969 C 465.007812 253.210938 464.566406 253.652344 464.023438 253.652344 Z M 464.023438 253.652344 " fill-opacity="1" fill-rule="nonzero"/></g></g><g clip-path="url(#b328d992d5)"><g clip-path="url(#820409ca97)"><path fill="#36496d" d="M 469.4375 249.222656 C 470.519531 249.222656 471.40625 248.339844 471.40625 247.253906 C 471.40625 246.167969 470.519531 245.285156 469.4375 245.285156 C 468.351562 245.285156 467.46875 246.167969 467.46875 247.253906 C 467.46875 247.707031 467.621094 248.125 467.882812 248.457031 L 466.109375 250.230469 L 465.914062 250.035156 C 465.820312 249.941406 465.664062 249.941406 465.566406 250.035156 L 465.214844 250.390625 C 465.183594 250.421875 465.136719 250.425781 465.09375 250.40625 C 465.019531 250.371094 464.941406 250.339844 464.859375 250.308594 C 464.816406 250.292969 464.789062 250.257812 464.789062 250.214844 L 464.789062 249.714844 C 464.789062 249.578125 464.679688 249.46875 464.542969 249.46875 L 464.269531 249.46875 L 464.269531 248.210938 C 464.828125 248.097656 465.253906 247.601562 465.253906 247.007812 C 465.253906 246.328125 464.699219 245.777344 464.023438 245.777344 C 463.34375 245.777344 462.792969 246.328125 462.792969 247.007812 C 462.792969 247.601562 463.214844 248.097656 463.777344 248.210938 L 463.777344 249.46875 L 463.5 249.46875 C 463.363281 249.46875 463.253906 249.578125 463.253906 249.714844 L 463.253906 250.214844 C 463.253906 250.257812 463.226562 250.292969 463.183594 250.308594 C 463.101562 250.335938 463.023438 250.371094 462.949219 250.40625 C 462.90625 250.425781 462.859375 250.421875 462.828125 250.390625 L 462.476562 250.035156 C 462.378906 249.941406 462.222656 249.941406 462.128906 250.035156 L 461.933594 250.230469 L 460.160156 248.457031 C 460.421875 248.125 460.578125 247.707031 460.578125 247.253906 C 460.578125 246.167969 459.691406 245.285156 458.609375 245.285156 C 457.523438 245.285156 456.640625 246.167969 456.640625 247.253906 C 456.640625 248.339844 457.523438 249.222656 458.609375 249.222656 C 459.0625 249.222656 459.480469 249.066406 459.8125 248.804688 L 461.585938 250.578125 L 461.390625 250.773438 C 461.292969 250.871094 461.292969 251.023438 461.390625 251.121094 L 461.746094 251.476562 C 461.773438 251.503906 461.78125 251.550781 461.761719 251.59375 C 461.726562 251.671875 461.691406 251.75 461.664062 251.828125 C 461.648438 251.871094 461.609375 251.898438 461.566406 251.898438 L 461.070312 251.898438 C 460.933594 251.898438 460.824219 252.011719 460.824219 252.144531 L 460.824219 252.421875 L 459.566406 252.421875 C 459.453125 251.859375 458.957031 251.4375 458.363281 251.4375 C 457.683594 251.4375 457.132812 251.988281 457.132812 252.667969 C 457.132812 253.34375 457.683594 253.898438 458.363281 253.898438 C 458.957031 253.898438 459.453125 253.472656 459.566406 252.914062 L 460.824219 252.914062 L 460.824219 253.1875 C 460.824219 253.324219 460.933594 253.433594 461.070312 253.433594 L 461.566406 253.433594 C 461.609375 253.433594 461.648438 253.460938 461.664062 253.503906 C 461.691406 253.585938 461.726562 253.664062 461.761719 253.742188 C 461.78125 253.78125 461.773438 253.828125 461.746094 253.859375 L 461.390625 254.210938 C 461.292969 254.308594 461.292969 254.464844 461.390625 254.5625 L 461.585938 254.753906 L 459.8125 256.527344 C 459.480469 256.269531 459.0625 256.113281 458.609375 256.113281 C 457.523438 256.113281 456.640625 256.996094 456.640625 258.082031 C 456.640625 259.167969 457.523438 260.050781 458.609375 260.050781 C 459.691406 260.050781 460.578125 259.167969 460.578125 258.082031 C 460.578125 257.625 460.421875 257.210938 460.160156 256.875 L 461.933594 255.101562 L 462.128906 255.296875 C 462.222656 255.394531 462.378906 255.394531 462.476562 255.296875 L 462.828125 254.945312 C 462.859375 254.914062 462.90625 254.90625 462.949219 254.925781 C 463.023438 254.964844 463.101562 254.996094 463.183594 255.023438 C 463.226562 255.039062 463.253906 255.078125 463.253906 255.121094 L 463.253906 255.621094 C 463.253906 255.757812 463.363281 255.867188 463.5 255.867188 L 463.777344 255.867188 L 463.777344 257.121094 C 463.214844 257.234375 462.792969 257.734375 462.792969 258.328125 C 462.792969 259.003906 463.34375 259.558594 464.023438 259.558594 C 464.699219 259.558594 465.253906 259.003906 465.253906 258.328125 C 465.253906 257.734375 464.828125 257.234375 464.269531 257.121094 L 464.269531 255.867188 L 464.542969 255.867188 C 464.679688 255.867188 464.789062 255.757812 464.789062 255.621094 L 464.789062 255.121094 C 464.789062 255.078125 464.816406 255.039062 464.859375 255.023438 C 464.941406 254.996094 465.019531 254.964844 465.09375 254.925781 C 465.136719 254.90625 465.183594 254.914062 465.214844 254.945312 L 465.566406 255.296875 C 465.664062 255.394531 465.820312 255.394531 465.914062 255.296875 L 466.109375 255.101562 L 467.882812 256.875 C 467.621094 257.210938 467.46875 257.625 467.46875 258.082031 C 467.46875 259.167969 468.351562 260.050781 469.4375 260.050781 C 470.519531 260.050781 471.40625 259.167969 471.40625 258.082031 C 471.40625 256.996094 470.519531 256.113281 469.4375 256.113281 C 468.980469 256.113281 468.5625 256.269531 468.230469 256.527344 L 466.457031 254.753906 L 466.652344 254.5625 C 466.75 254.464844 466.75 254.308594 466.652344 254.210938 L 466.296875 253.859375 C 466.269531 253.828125 466.261719 253.78125 466.28125 253.738281 C 466.316406 253.664062 466.351562 253.585938 466.378906 253.503906 C 466.394531 253.460938 466.433594 253.433594 466.476562 253.433594 L 466.976562 253.433594 C 467.109375 253.433594 467.222656 253.324219 467.222656 253.1875 L 467.222656 252.914062 L 468.476562 252.914062 C 468.589844 253.472656 469.085938 253.898438 469.683594 253.898438 C 470.359375 253.898438 470.914062 253.34375 470.914062 252.667969 C 470.914062 251.988281 470.359375 251.4375 469.683594 251.4375 C 469.085938 251.4375 468.589844 251.859375 468.476562 252.421875 L 467.222656 252.421875 L 467.222656 252.144531 C 467.222656 252.011719 467.109375 251.898438 466.976562 251.898438 L 466.476562 251.898438 C 466.433594 251.898438 466.394531 251.871094 466.378906 251.828125 C 466.351562 251.75 466.320312 251.671875 466.28125 251.59375 C 466.261719 251.550781 466.269531 251.503906 466.296875 251.476562 L 466.652344 251.121094 C 466.75 251.023438 466.75 250.871094 466.652344 250.773438 L 466.457031 250.578125 L 468.230469 248.804688 C 468.5625 249.066406 468.980469 249.222656 469.4375 249.222656 Z M 459.101562 248.644531 C 458.945312 248.699219 458.78125 248.730469 458.609375 248.730469 C 458.433594 248.730469 458.269531 248.699219 458.117188 248.644531 L 458.117188 247.992188 C 458.117188 247.855469 458.226562 247.746094 458.363281 247.746094 L 458.855469 247.746094 C 458.988281 247.746094 459.101562 247.855469 459.101562 247.992188 Z M 458.363281 247.007812 C 458.363281 246.871094 458.472656 246.761719 458.609375 246.761719 C 458.742188 246.761719 458.855469 246.871094 458.855469 247.007812 C 458.855469 247.144531 458.742188 247.253906 458.609375 247.253906 C 458.472656 247.253906 458.363281 247.144531 458.363281 247.007812 Z M 459.59375 248.351562 L 459.59375 247.992188 C 459.59375 247.730469 459.453125 247.5 459.246094 247.367188 C 459.308594 247.261719 459.347656 247.140625 459.347656 247.007812 C 459.347656 246.601562 459.015625 246.269531 458.609375 246.269531 C 458.199219 246.269531 457.871094 246.601562 457.871094 247.007812 C 457.871094 247.140625 457.90625 247.261719 457.96875 247.367188 C 457.761719 247.5 457.625 247.730469 457.625 247.992188 L 457.625 248.351562 C 457.320312 248.078125 457.132812 247.6875 457.132812 247.253906 C 457.132812 246.4375 457.792969 245.777344 458.609375 245.777344 C 459.421875 245.777344 460.085938 246.4375 460.085938 247.253906 C 460.085938 247.6875 459.894531 248.078125 459.59375 248.351562 Z M 458.363281 253.40625 C 457.953125 253.40625 457.625 253.074219 457.625 252.667969 C 457.625 252.261719 457.953125 251.929688 458.363281 251.929688 C 458.769531 251.929688 459.101562 252.261719 459.101562 252.667969 C 459.101562 253.074219 458.769531 253.40625 458.363281 253.40625 Z M 459.101562 259.472656 C 458.945312 259.527344 458.78125 259.558594 458.609375 259.558594 C 458.433594 259.558594 458.269531 259.527344 458.117188 259.472656 L 458.117188 258.820312 C 458.117188 258.683594 458.226562 258.574219 458.363281 258.574219 L 458.855469 258.574219 C 458.988281 258.574219 459.101562 258.683594 459.101562 258.820312 Z M 458.363281 257.835938 C 458.363281 257.699219 458.472656 257.589844 458.609375 257.589844 C 458.742188 257.589844 458.855469 257.699219 458.855469 257.835938 C 458.855469 257.972656 458.742188 258.082031 458.609375 258.082031 C 458.472656 258.082031 458.363281 257.972656 458.363281 257.835938 Z M 459.59375 259.179688 L 459.59375 258.820312 C 459.59375 258.558594 459.453125 258.328125 459.246094 258.195312 C 459.308594 258.089844 459.347656 257.96875 459.347656 257.835938 C 459.347656 257.429688 459.015625 257.097656 458.609375 257.097656 C 458.199219 257.097656 457.871094 257.429688 457.871094 257.835938 C 457.871094 257.96875 457.90625 258.089844 457.96875 258.195312 C 457.761719 258.328125 457.625 258.558594 457.625 258.820312 L 457.625 259.179688 C 457.320312 258.90625 457.132812 258.515625 457.132812 258.082031 C 457.132812 257.265625 457.792969 256.605469 458.609375 256.605469 C 459.421875 256.605469 460.085938 257.265625 460.085938 258.082031 C 460.085938 258.515625 459.894531 258.90625 459.59375 259.179688 Z M 469.929688 259.472656 C 469.773438 259.527344 469.609375 259.558594 469.4375 259.558594 C 469.261719 259.558594 469.097656 259.527344 468.945312 259.472656 L 468.945312 258.820312 C 468.945312 258.683594 469.054688 258.574219 469.191406 258.574219 L 469.683594 258.574219 C 469.816406 258.574219 469.929688 258.683594 469.929688 258.820312 Z M 469.191406 257.835938 C 469.191406 257.699219 469.300781 257.589844 469.4375 257.589844 C 469.570312 257.589844 469.683594 257.699219 469.683594 257.835938 C 469.683594 257.972656 469.570312 258.082031 469.4375 258.082031 C 469.300781 258.082031 469.191406 257.972656 469.191406 257.835938 Z M 469.4375 256.605469 C 470.25 256.605469 470.914062 257.265625 470.914062 258.082031 C 470.914062 258.515625 470.722656 258.90625 470.421875 259.179688 L 470.421875 258.820312 C 470.421875 258.558594 470.28125 258.328125 470.074219 258.195312 C 470.136719 258.089844 470.175781 257.96875 470.175781 257.835938 C 470.175781 257.429688 469.84375 257.097656 469.4375 257.097656 C 469.027344 257.097656 468.699219 257.429688 468.699219 257.835938 C 468.699219 257.96875 468.734375 258.089844 468.796875 258.195312 C 468.589844 258.328125 468.453125 258.558594 468.453125 258.820312 L 468.453125 259.179688 C 468.148438 258.910156 467.960938 258.515625 467.960938 258.082031 C 467.960938 257.265625 468.621094 256.605469 469.4375 256.605469 Z M 469.683594 251.929688 C 470.089844 251.929688 470.421875 252.261719 470.421875 252.667969 C 470.421875 253.074219 470.089844 253.40625 469.683594 253.40625 C 469.273438 253.40625 468.945312 253.074219 468.945312 252.667969 C 468.945312 252.261719 469.273438 251.929688 469.683594 251.929688 Z M 463.285156 247.007812 C 463.285156 246.601562 463.613281 246.269531 464.023438 246.269531 C 464.429688 246.269531 464.761719 246.601562 464.761719 247.007812 C 464.761719 247.414062 464.429688 247.746094 464.023438 247.746094 C 463.613281 247.746094 463.285156 247.414062 463.285156 247.007812 Z M 464.761719 258.328125 C 464.761719 258.734375 464.429688 259.066406 464.023438 259.066406 C 463.613281 259.066406 463.285156 258.734375 463.285156 258.328125 C 463.285156 257.921875 463.613281 257.589844 464.023438 257.589844 C 464.429688 257.589844 464.761719 257.921875 464.761719 258.328125 Z M 466.476562 252.390625 L 466.730469 252.390625 L 466.730469 252.941406 L 466.476562 252.941406 C 466.226562 252.941406 466 253.101562 465.914062 253.339844 C 465.894531 253.40625 465.867188 253.46875 465.839844 253.527344 C 465.730469 253.757812 465.773438 254.03125 465.953125 254.207031 L 466.128906 254.386719 L 465.742188 254.777344 L 465.5625 254.597656 C 465.386719 254.417969 465.113281 254.375 464.882812 254.484375 C 464.824219 254.511719 464.761719 254.539062 464.695312 254.5625 C 464.457031 254.644531 464.296875 254.871094 464.296875 255.121094 L 464.296875 255.375 L 463.746094 255.375 L 463.746094 255.121094 C 463.746094 254.871094 463.585938 254.644531 463.347656 254.5625 C 463.285156 254.539062 463.21875 254.511719 463.160156 254.484375 C 462.929688 254.375 462.65625 254.417969 462.480469 254.597656 L 462.300781 254.777344 L 461.914062 254.386719 L 462.09375 254.207031 C 462.269531 254.03125 462.316406 253.757812 462.207031 253.53125 C 462.175781 253.46875 462.148438 253.40625 462.128906 253.339844 C 462.042969 253.101562 461.816406 252.941406 461.566406 252.941406 L 461.316406 252.941406 L 461.316406 252.390625 L 461.566406 252.390625 C 461.816406 252.390625 462.042969 252.230469 462.128906 251.992188 C 462.148438 251.929688 462.175781 251.867188 462.203125 251.804688 C 462.3125 251.578125 462.269531 251.304688 462.09375 251.125 L 461.914062 250.949219 L 462.300781 250.558594 L 462.480469 250.738281 C 462.65625 250.914062 462.929688 250.960938 463.160156 250.851562 C 463.21875 250.824219 463.28125 250.796875 463.347656 250.773438 C 463.585938 250.6875 463.746094 250.464844 463.746094 250.214844 L 463.746094 249.960938 L 464.296875 249.960938 L 464.296875 250.214844 C 464.296875 250.464844 464.457031 250.6875 464.695312 250.773438 C 464.757812 250.796875 464.824219 250.820312 464.882812 250.851562 C 465.113281 250.960938 465.386719 250.914062 465.5625 250.738281 L 465.742188 250.558594 L 466.128906 250.945312 L 465.949219 251.125 C 465.773438 251.304688 465.730469 251.578125 465.835938 251.804688 C 465.867188 251.867188 465.894531 251.929688 465.914062 251.992188 C 466 252.230469 466.226562 252.390625 466.476562 252.390625 Z M 469.929688 248.644531 C 469.773438 248.699219 469.609375 248.730469 469.4375 248.730469 C 469.261719 248.730469 469.097656 248.699219 468.945312 248.644531 L 468.945312 247.992188 C 468.945312 247.855469 469.054688 247.746094 469.191406 247.746094 L 469.683594 247.746094 C 469.816406 247.746094 469.929688 247.855469 469.929688 247.992188 Z M 469.191406 247.007812 C 469.191406 246.871094 469.300781 246.761719 469.4375 246.761719 C 469.570312 246.761719 469.683594 246.871094 469.683594 247.007812 C 469.683594 247.144531 469.570312 247.253906 469.4375 247.253906 C 469.300781 247.253906 469.191406 247.144531 469.191406 247.007812 Z M 469.4375 245.777344 C 470.25 245.777344 470.914062 246.4375 470.914062 247.253906 C 470.914062 247.6875 470.722656 248.078125 470.421875 248.351562 L 470.421875 247.992188 C 470.421875 247.730469 470.28125 247.5 470.074219 247.367188 C 470.136719 247.261719 470.175781 247.140625 470.175781 247.007812 C 470.175781 246.601562 469.84375 246.269531 469.4375 246.269531 C 469.027344 246.269531 468.699219 246.601562 468.699219 247.007812 C 468.699219 247.140625 468.734375 247.261719 468.796875 247.367188 C 468.589844 247.5 468.453125 247.730469 468.453125 247.992188 L 468.453125 248.351562 C 468.148438 248.082031 467.960938 247.6875 467.960938 247.253906 C 467.960938 246.4375 468.621094 245.777344 469.4375 245.777344 Z M 469.4375 245.777344 " fill-opacity="1" fill-rule="nonzero"/></g></g><path fill="#ffffff" d="M 377.363281 510.054688 L 674.246094 676.601562 L 674.246094 170.222656 L 377.363281 3.675781 Z M 377.363281 510.054688 " fill-opacity="1" fill-rule="nonzero"/><g mask="url(#bc7beb539b)"><g transform="matrix(1, 0, 0, 1, 399, 136)"><g clip-path="url(#2e1d46390c)"><g clip-path="url(#fda4f1fcf7)"><path fill="#36496d" d="M 0.652344 387.367188 L 223.84375 514.65625 L 223.84375 127.636719 L 0.652344 0.347656 Z M 0.652344 387.367188 " fill-opacity="1" fill-rule="nonzero"/></g></g></g></g><path fill="#9f72f5" d="M 432.484375 147.3125 C 428.253906 144.765625 422.800781 146.195312 420.300781 150.503906 C 417.800781 154.808594 419.203125 160.359375 423.433594 162.90625 L 619.125 280.644531 C 623.355469 283.191406 628.808594 281.761719 631.308594 277.453125 C 633.808594 273.148438 632.40625 267.59375 628.175781 265.050781 Z M 432.484375 147.3125 " fill-opacity="1" fill-rule="nonzero"/><path fill="#9f72f5" d="M 432.484375 205.535156 C 428.253906 202.992188 422.800781 204.417969 420.300781 208.726562 C 417.800781 213.03125 419.203125 218.585938 423.433594 221.128906 L 619.125 338.867188 C 623.355469 341.414062 628.808594 339.984375 631.308594 335.679688 C 633.808594 331.371094 632.40625 325.820312 628.175781 323.273438 Z M 432.484375 205.535156 " fill-opacity="1" fill-rule="nonzero"/><path fill="#9f72f5" d="M 420.300781 266.949219 C 422.800781 262.640625 428.253906 261.214844 432.484375 263.757812 L 628.175781 381.496094 C 632.40625 384.042969 633.808594 389.597656 631.308594 393.902344 C 628.808594 398.207031 623.355469 399.636719 619.125 397.09375 L 423.433594 279.355469 C 419.203125 276.808594 417.800781 271.253906 420.300781 266.949219 Z M 420.300781 266.949219 " fill-opacity="1" fill-rule="nonzero"/><path fill="#9f72f5" d="M 432.484375 321.980469 C 428.253906 319.4375 422.800781 320.867188 420.300781 325.171875 C 417.800781 329.476562 419.203125 335.03125 423.433594 337.578125 L 619.125 455.316406 C 623.355469 457.859375 628.808594 456.433594 631.308594 452.125 C 633.808594 447.820312 632.40625 442.265625 628.175781 439.71875 Z M 432.484375 321.980469 " fill-opacity="1" fill-rule="nonzero"/><path fill="#ffffff" d="M 288.929688 559.824219 L 588.007812 727.605469 L 588.007812 217.476562 L 288.929688 49.695312 Z M 288.929688 559.824219 " fill-opacity="1" fill-rule="nonzero"/><path fill="#9f72f5" d="M 345.148438 195.832031 C 340.917969 193.285156 335.464844 194.714844 332.964844 199.023438 C 330.464844 203.328125 331.867188 208.882812 336.097656 211.425781 L 531.792969 329.164062 C 536.019531 331.710938 541.476562 330.28125 543.972656 325.972656 C 546.472656 321.667969 545.070312 316.113281 540.839844 313.570312 Z M 345.148438 195.832031 " fill-opacity="1" fill-rule="nonzero"/><path fill="#9f72f5" d="M 345.148438 254.054688 C 340.917969 251.511719 335.464844 252.9375 332.964844 257.246094 C 330.464844 261.550781 331.867188 267.105469 336.097656 269.648438 L 531.792969 387.386719 C 536.019531 389.933594 541.476562 388.503906 543.972656 384.199219 C 546.472656 379.890625 545.070312 374.339844 540.839844 371.792969 Z M 345.148438 254.054688 " fill-opacity="1" fill-rule="nonzero"/><path fill="#9f72f5" d="M 332.964844 315.46875 C 335.464844 311.160156 340.917969 309.734375 345.148438 312.277344 L 540.839844 430.015625 C 545.070312 432.5625 546.472656 438.117188 543.972656 442.421875 C 541.476562 446.726562 536.019531 448.15625 531.792969 445.613281 L 336.097656 327.875 C 331.867188 325.328125 330.464844 319.773438 332.964844 315.46875 Z M 332.964844 315.46875 " fill-opacity="1" fill-rule="nonzero"/><path fill="#9f72f5" d="M 345.148438 370.5 C 340.917969 367.957031 335.464844 369.386719 332.964844 373.691406 C 330.464844 377.996094 331.867188 383.550781 336.097656 386.097656 L 531.792969 503.835938 C 536.019531 506.378906 541.476562 504.953125 543.972656 500.644531 C 546.472656 496.339844 545.070312 490.785156 540.839844 488.238281 Z M 345.148438 370.5 " fill-opacity="1" fill-rule="nonzero"/><path fill="#ffffff" d="M 302.992188 511.777344 C 392.203125 574.230469 473.398438 518.71875 485.777344 433.398438 C 498.152344 348.074219 435.863281 228.28125 346.652344 165.828125 C 257.441406 103.375 152.238281 147.039062 139.859375 232.359375 C 127.484375 317.679688 213.777344 449.324219 302.992188 511.777344 Z M 307.679688 440.472656 C 373.621094 489.046875 434.488281 474.628906 443.636719 408.265625 C 452.785156 341.90625 406.746094 248.730469 340.804688 200.15625 C 274.867188 151.582031 213.996094 166 204.847656 232.363281 C 195.699219 298.722656 241.738281 391.894531 307.679688 440.472656 Z M 307.679688 440.472656 " fill-opacity="1" fill-rule="evenodd"/><g mask="url(#e332de2222)"><g transform="matrix(1, 0, 0, 1, 118, 552)"><g clip-path="url(#f63e9189f9)"><g clip-path="url(#d63e0a45db)"><path fill="#36496d" d="M 4.207031 16.261719 C 12.371094 2.257812 30.453125 -2.542969 44.59375 5.542969 L 383.3125 199.261719 C 397.453125 207.351562 402.300781 225.261719 394.136719 239.269531 C 385.972656 253.277344 367.890625 258.078125 353.75 249.988281 L 15.027344 56.269531 C 0.886719 48.183594 -3.957031 30.269531 4.207031 16.261719 Z M 4.207031 16.261719 " fill-opacity="1" fill-rule="evenodd"/></g></g></g></g><path fill="#aaa9c8" d="M 370.070312 540.835938 C 394.589844 541.710938 416.335938 535.328125 432.882812 522.078125 L 500.789062 715.71875 C 506.804688 732.871094 497.867188 751.675781 480.828125 757.730469 C 463.789062 763.78125 445.101562 754.785156 439.085938 737.636719 Z M 370.070312 540.835938 " fill-opacity="1" fill-rule="nonzero"/><path fill="#9f72f5" d="M 271.367188 503.800781 C 360.578125 566.253906 452.007812 548.132812 464.386719 462.8125 C 476.761719 377.492188 407.757812 250.738281 318.542969 188.285156 C 229.332031 125.832031 141.714844 149.195312 129.339844 234.515625 C 116.964844 319.835938 182.152344 441.347656 271.367188 503.800781 Z M 283.75 462.8125 C 349.6875 511.386719 400.90625 503.4375 410.050781 437.074219 C 419.199219 370.714844 378.761719 281.183594 312.824219 232.605469 C 246.882812 184.03125 191.855469 201.515625 182.707031 267.875 C 173.558594 334.238281 217.808594 414.238281 283.75 462.8125 Z M 283.75 462.8125 " fill-opacity="1" fill-rule="evenodd"/><path fill="#36496d" d="M 415.292969 435.179688 C 406.144531 501.539062 345.273438 515.957031 279.335938 467.382812 C 213.394531 418.808594 167.355469 325.632812 176.503906 259.273438 C 185.652344 192.910156 246.519531 178.492188 312.460938 227.066406 C 378.402344 275.644531 424.441406 368.816406 415.292969 435.179688 Z M 292.910156 415.457031 C 299.488281 421.675781 306.34375 427.441406 313.425781 432.65625 C 345.15625 456.035156 373.945312 462.945312 394.707031 458.027344 C 396.300781 457.652344 397.863281 457.199219 399.394531 456.671875 C 402.324219 450.203125 404.472656 442.617188 405.679688 433.855469 C 409.898438 403.226562 401.417969 365.347656 383.332031 328.753906 C 365.3125 292.273438 338.253906 258.121094 306.707031 234.878906 C 302.039062 231.441406 297.433594 228.359375 292.910156 225.621094 Z M 283.207031 220.195312 L 283.207031 405.746094 C 264.652344 386.113281 248.738281 362.960938 236.796875 338.789062 C 218.710938 302.191406 210.230469 264.3125 214.449219 233.6875 C 215.660156 224.925781 217.808594 217.335938 220.734375 210.867188 C 222.265625 210.339844 223.828125 209.890625 225.421875 209.511719 C 240.917969 205.839844 260.882812 208.757812 283.207031 220.195312 Z M 283.207031 220.195312 " fill-opacity="1" fill-rule="evenodd"/><g clip-path="url(#0cd630d7f9)"><path fill="#36496d" d="M 593.730469 637.640625 L 666.617188 678.523438 C 669.621094 680.210938 673.292969 680.175781 676.265625 678.4375 C 679.242188 676.695312 681.066406 673.507812 681.066406 670.0625 L 681.066406 173.511719 C 681.066406 170 679.171875 166.765625 676.113281 165.046875 L 384.996094 1.734375 C 381.988281 0.046875 378.316406 0.0820312 375.34375 1.824219 C 372.371094 3.5625 370.542969 6.75 370.542969 10.195312 L 370.542969 91.140625 L 297.660156 50.253906 C 294.652344 48.566406 290.980469 48.601562 288.007812 50.34375 C 285.035156 52.082031 283.207031 55.269531 283.207031 58.714844 L 283.207031 128.910156 C 239.777344 121.511719 197.996094 133.410156 168.890625 159.105469 C 145.511719 173.257812 129.730469 198.488281 124.761719 232.75 C 118.179688 278.105469 131.484375 331.480469 157.21875 380.980469 C 183.03125 430.617188 221.890625 477.4375 267.921875 509.664062 C 273.023438 513.234375 278.121094 516.5625 283.207031 519.644531 L 283.207031 555.265625 C 283.207031 558.777344 285.101562 562.011719 288.164062 563.730469 L 393.707031 622.941406 L 434.503906 739.269531 C 441.398438 758.933594 462.855469 769.285156 482.445312 762.328125 C 502.027344 755.375 512.253906 733.789062 505.363281 714.140625 L 492.894531 678.582031 L 579.28125 727.042969 C 582.285156 728.730469 585.960938 728.695312 588.933594 726.957031 C 591.90625 725.214844 593.730469 722.027344 593.730469 718.582031 Z M 488.039062 664.730469 L 584.027344 718.582031 L 584.027344 222.03125 L 292.910156 58.714844 L 292.910156 130.878906 C 312.851562 135.585938 332.96875 144.410156 352.207031 157.878906 C 398.242188 190.101562 437.101562 236.921875 462.910156 286.558594 C 488.648438 336.058594 501.949219 389.433594 495.371094 434.789062 C 489.617188 474.449219 469.71875 508.742188 440.433594 528.992188 Z M 388.851562 609.089844 L 367.519531 548.269531 C 344.28125 547.195312 318.878906 539.449219 292.910156 525.242188 L 292.910156 555.265625 Z M 380.246094 96.582031 L 588.777344 213.566406 C 591.835938 215.285156 593.730469 218.519531 593.730469 222.03125 L 593.730469 626.511719 L 671.363281 670.0625 L 671.363281 173.511719 L 380.246094 10.195312 Z M 379.460938 548.222656 C 392.429688 548.167969 404.847656 545.855469 416.464844 541.527344 L 471.140625 701.007812 C 472.011719 703.542969 474.769531 704.894531 477.304688 704.023438 C 479.839844 703.15625 481.191406 700.394531 480.320312 697.859375 L 425.417969 537.722656 C 426.140625 537.375 426.859375 537.019531 427.578125 536.65625 C 429.074219 535.898438 430.550781 535.105469 432.007812 534.28125 L 496.207031 717.351562 C 501.34375 732 493.699219 748.03125 479.199219 753.183594 C 464.714844 758.328125 448.792969 750.691406 443.660156 736.058594 L 377.816406 548.304688 C 378.367188 548.28125 378.914062 548.253906 379.460938 548.222656 Z M 456.167969 294.679688 L 432.1875 308.957031 C 406.398438 261.003906 368.507812 216.035156 323.871094 184.789062 C 282.601562 155.898438 241.480469 142.9375 206.75 146.683594 C 246.921875 129.394531 299.054688 132.515625 346.640625 165.828125 C 392.367188 197.835938 431.015625 244.90625 456.167969 294.679688 Z M 457.429688 460.308594 C 445.054688 545.628906 362.699219 564.167969 273.488281 501.714844 C 184.277344 439.257812 121.988281 319.464844 134.363281 234.144531 C 146.742188 148.820312 229.09375 130.285156 318.308594 192.738281 C 407.519531 255.191406 469.808594 374.988281 457.429688 460.308594 Z M 457.429688 460.308594 " fill-opacity="1" fill-rule="evenodd"/></g></svg>