<svg xmlns="http://www.w3.org/2000/svg" xmlns:xlink="http://www.w3.org/1999/xlink" width="1080" zoomAndPan="magnify" viewBox="0 0 810 809.999993" height="1080" preserveAspectRatio="xMidYMid meet" version="1.0"><defs><clipPath id="995aceb09b"><path d="M 462 251 L 466 251 L 466 255 L 462 255 Z M 462 251 " clip-rule="nonzero"/></clipPath><clipPath id="a9b85fa921"><path d="M 456.640625 252.667969 C 456.640625 256.746094 459.945312 260.050781 464.023438 260.050781 C 468.101562 260.050781 471.40625 256.746094 471.40625 252.667969 C 471.40625 248.589844 468.101562 245.285156 464.023438 245.285156 C 459.945312 245.285156 456.640625 248.589844 456.640625 252.667969 Z M 456.640625 252.667969 " clip-rule="nonzero"/></clipPath><clipPath id="68cda7da01"><path d="M 456.640625 245.285156 L 471.640625 245.285156 L 471.640625 260.285156 L 456.640625 260.285156 Z M 456.640625 245.285156 " clip-rule="nonzero"/></clipPath><clipPath id="d9a0c3af67"><path d="M 456.640625 252.667969 C 456.640625 256.746094 459.945312 260.050781 464.023438 260.050781 C 468.101562 260.050781 471.40625 256.746094 471.40625 252.667969 C 471.40625 248.589844 468.101562 245.285156 464.023438 245.285156 C 459.945312 245.285156 456.640625 248.589844 456.640625 252.667969 Z M 456.640625 252.667969 " clip-rule="nonzero"/></clipPath></defs><g clip-path="url(#995aceb09b)"><g clip-path="url(#a9b85fa921)"><path fill="#36496d" d="M 464.023438 251.191406 C 463.207031 251.191406 462.546875 251.851562 462.546875 252.667969 C 462.546875 253.480469 463.207031 254.144531 464.023438 254.144531 C 464.835938 254.144531 465.5 253.480469 465.5 252.667969 C 465.5 251.851562 464.835938 251.191406 464.023438 251.191406 Z M 464.023438 253.652344 C 463.480469 253.652344 463.039062 253.210938 463.039062 252.667969 C 463.039062 252.125 463.480469 251.683594 464.023438 251.683594 C 464.566406 251.683594 465.007812 252.125 465.007812 252.667969 C 465.007812 253.210938 464.566406 253.652344 464.023438 253.652344 Z M 464.023438 253.652344 " fill-opacity="1" fill-rule="nonzero"/></g></g><g clip-path="url(#68cda7da01)"><g clip-path="url(#d9a0c3af67)"><path fill="#36496d" d="M 469.4375 249.222656 C 470.519531 249.222656 471.40625 248.339844 471.40625 247.253906 C 471.40625 246.167969 470.519531 245.285156 469.4375 245.285156 C 468.351562 245.285156 467.46875 246.167969 467.46875 247.253906 C 467.46875 247.707031 467.621094 248.125 467.882812 248.457031 L 466.109375 250.230469 L 465.914062 250.035156 C 465.820312 249.941406 465.664062 249.941406 465.566406 250.035156 L 465.214844 250.390625 C 465.183594 250.421875 465.136719 250.425781 465.09375 250.40625 C 465.019531 250.371094 464.941406 250.339844 464.859375 250.308594 C 464.816406 250.292969 464.789062 250.257812 464.789062 250.214844 L 464.789062 249.714844 C 464.789062 249.578125 464.679688 249.46875 464.542969 249.46875 L 464.269531 249.46875 L 464.269531 248.210938 C 464.828125 248.097656 465.253906 247.601562 465.253906 247.007812 C 465.253906 246.328125 464.699219 245.777344 464.023438 245.777344 C 463.34375 245.777344 462.792969 246.328125 462.792969 247.007812 C 462.792969 247.601562 463.214844 248.097656 463.777344 248.210938 L 463.777344 249.46875 L 463.5 249.46875 C 463.363281 249.46875 463.253906 249.578125 463.253906 249.714844 L 463.253906 250.214844 C 463.253906 250.257812 463.226562 250.292969 463.183594 250.308594 C 463.101562 250.335938 463.023438 250.371094 462.949219 250.40625 C 462.90625 250.425781 462.859375 250.421875 462.828125 250.390625 L 462.476562 250.035156 C 462.378906 249.941406 462.222656 249.941406 462.128906 250.035156 L 461.933594 250.230469 L 460.160156 248.457031 C 460.421875 248.125 460.578125 247.707031 460.578125 247.253906 C 460.578125 246.167969 459.691406 245.285156 458.609375 245.285156 C 457.523438 245.285156 456.640625 246.167969 456.640625 247.253906 C 456.640625 248.339844 457.523438 249.222656 458.609375 249.222656 C 459.0625 249.222656 459.480469 249.066406 459.8125 248.804688 L 461.585938 250.578125 L 461.390625 250.773438 C 461.292969 250.871094 461.292969 251.023438 461.390625 251.121094 L 461.746094 251.476562 C 461.773438 251.503906 461.78125 251.550781 461.761719 251.59375 C 461.726562 251.671875 461.691406 251.75 461.664062 251.828125 C 461.648438 251.871094 461.609375 251.898438 461.566406 251.898438 L 461.070312 251.898438 C 460.933594 251.898438 460.824219 252.011719 460.824219 252.144531 L 460.824219 252.421875 L 459.566406 252.421875 C 459.453125 251.859375 458.957031 251.4375 458.363281 251.4375 C 457.683594 251.4375 457.132812 251.988281 457.132812 252.667969 C 457.132812 253.34375 457.683594 253.898438 458.363281 253.898438 C 458.957031 253.898438 459.453125 253.472656 459.566406 252.914062 L 460.824219 252.914062 L 460.824219 253.1875 C 460.824219 253.324219 460.933594 253.433594 461.070312 253.433594 L 461.566406 253.433594 C 461.609375 253.433594 461.648438 253.460938 461.664062 253.503906 C 461.691406 253.585938 461.726562 253.664062 461.761719 253.742188 C 461.78125 253.78125 461.773438 253.828125 461.746094 253.859375 L 461.390625 254.210938 C 461.292969 254.308594 461.292969 254.464844 461.390625 254.5625 L 461.585938 254.753906 L 459.8125 256.527344 C 459.480469 256.269531 459.0625 256.113281 458.609375 256.113281 C 457.523438 256.113281 456.640625 256.996094 456.640625 258.082031 C 456.640625 259.167969 457.523438 260.050781 458.609375 260.050781 C 459.691406 260.050781 460.578125 259.167969 460.578125 258.082031 C 460.578125 257.625 460.421875 257.210938 460.160156 256.875 L 461.933594 255.101562 L 462.128906 255.296875 C 462.222656 255.394531 462.378906 255.394531 462.476562 255.296875 L 462.828125 254.945312 C 462.859375 254.914062 462.90625 254.90625 462.949219 254.925781 C 463.023438 254.964844 463.101562 254.996094 463.183594 255.023438 C 463.226562 255.039062 463.253906 255.078125 463.253906 255.121094 L 463.253906 255.621094 C 463.253906 255.757812 463.363281 255.867188 463.5 255.867188 L 463.777344 255.867188 L 463.777344 257.121094 C 463.214844 257.234375 462.792969 257.734375 462.792969 258.328125 C 462.792969 259.003906 463.34375 259.558594 464.023438 259.558594 C 464.699219 259.558594 465.253906 259.003906 465.253906 258.328125 C 465.253906 257.734375 464.828125 257.234375 464.269531 257.121094 L 464.269531 255.867188 L 464.542969 255.867188 C 464.679688 255.867188 464.789062 255.757812 464.789062 255.621094 L 464.789062 255.121094 C 464.789062 255.078125 464.816406 255.039062 464.859375 255.023438 C 464.941406 254.996094 465.019531 254.964844 465.09375 254.925781 C 465.136719 254.90625 465.183594 254.914062 465.214844 254.945312 L 465.566406 255.296875 C 465.664062 255.394531 465.820312 255.394531 465.914062 255.296875 L 466.109375 255.101562 L 467.882812 256.875 C 467.621094 257.210938 467.46875 257.625 467.46875 258.082031 C 467.46875 259.167969 468.351562 260.050781 469.4375 260.050781 C 470.519531 260.050781 471.40625 259.167969 471.40625 258.082031 C 471.40625 256.996094 470.519531 256.113281 469.4375 256.113281 C 468.980469 256.113281 468.5625 256.269531 468.230469 256.527344 L 466.457031 254.753906 L 466.652344 254.5625 C 466.75 254.464844 466.75 254.308594 466.652344 254.210938 L 466.296875 253.859375 C 466.269531 253.828125 466.261719 253.78125 466.28125 253.738281 C 466.316406 253.664062 466.351562 253.585938 466.378906 253.503906 C 466.394531 253.460938 466.433594 253.433594 466.476562 253.433594 L 466.976562 253.433594 C 467.109375 253.433594 467.222656 253.324219 467.222656 253.1875 L 467.222656 252.914062 L 468.476562 252.914062 C 468.589844 253.472656 469.085938 253.898438 469.683594 253.898438 C 470.359375 253.898438 470.914062 253.34375 470.914062 252.667969 C 470.914062 251.988281 470.359375 251.4375 469.683594 251.4375 C 469.085938 251.4375 468.589844 251.859375 468.476562 252.421875 L 467.222656 252.421875 L 467.222656 252.144531 C 467.222656 252.011719 467.109375 251.898438 466.976562 251.898438 L 466.476562 251.898438 C 466.433594 251.898438 466.394531 251.871094 466.378906 251.828125 C 466.351562 251.75 466.320312 251.671875 466.28125 251.59375 C 466.261719 251.550781 466.269531 251.503906 466.296875 251.476562 L 466.652344 251.121094 C 466.75 251.023438 466.75 250.871094 466.652344 250.773438 L 466.457031 250.578125 L 468.230469 248.804688 C 468.5625 249.066406 468.980469 249.222656 469.4375 249.222656 Z M 459.101562 248.644531 C 458.945312 248.699219 458.78125 248.730469 458.609375 248.730469 C 458.433594 248.730469 458.269531 248.699219 458.117188 248.644531 L 458.117188 247.992188 C 458.117188 247.855469 458.226562 247.746094 458.363281 247.746094 L 458.855469 247.746094 C 458.988281 247.746094 459.101562 247.855469 459.101562 247.992188 Z M 458.363281 247.007812 C 458.363281 246.871094 458.472656 246.761719 458.609375 246.761719 C 458.742188 246.761719 458.855469 246.871094 458.855469 247.007812 C 458.855469 247.144531 458.742188 247.253906 458.609375 247.253906 C 458.472656 247.253906 458.363281 247.144531 458.363281 247.007812 Z M 459.59375 248.351562 L 459.59375 247.992188 C 459.59375 247.730469 459.453125 247.5 459.246094 247.367188 C 459.308594 247.261719 459.347656 247.140625 459.347656 247.007812 C 459.347656 246.601562 459.015625 246.269531 458.609375 246.269531 C 458.199219 246.269531 457.871094 246.601562 457.871094 247.007812 C 457.871094 247.140625 457.90625 247.261719 457.96875 247.367188 C 457.761719 247.5 457.625 247.730469 457.625 247.992188 L 457.625 248.351562 C 457.320312 248.078125 457.132812 247.6875 457.132812 247.253906 C 457.132812 246.4375 457.792969 245.777344 458.609375 245.777344 C 459.421875 245.777344 460.085938 246.4375 460.085938 247.253906 C 460.085938 247.6875 459.894531 248.078125 459.59375 248.351562 Z M 458.363281 253.40625 C 457.953125 253.40625 457.625 253.074219 457.625 252.667969 C 457.625 252.261719 457.953125 251.929688 458.363281 251.929688 C 458.769531 251.929688 459.101562 252.261719 459.101562 252.667969 C 459.101562 253.074219 458.769531 253.40625 458.363281 253.40625 Z M 459.101562 259.472656 C 458.945312 259.527344 458.78125 259.558594 458.609375 259.558594 C 458.433594 259.558594 458.269531 259.527344 458.117188 259.472656 L 458.117188 258.820312 C 458.117188 258.683594 458.226562 258.574219 458.363281 258.574219 L 458.855469 258.574219 C 458.988281 258.574219 459.101562 258.683594 459.101562 258.820312 Z M 458.363281 257.835938 C 458.363281 257.699219 458.472656 257.589844 458.609375 257.589844 C 458.742188 257.589844 458.855469 257.699219 458.855469 257.835938 C 458.855469 257.972656 458.742188 258.082031 458.609375 258.082031 C 458.472656 258.082031 458.363281 257.972656 458.363281 257.835938 Z M 459.59375 259.179688 L 459.59375 258.820312 C 459.59375 258.558594 459.453125 258.328125 459.246094 258.195312 C 459.308594 258.089844 459.347656 257.96875 459.347656 257.835938 C 459.347656 257.429688 459.015625 257.097656 458.609375 257.097656 C 458.199219 257.097656 457.871094 257.429688 457.871094 257.835938 C 457.871094 257.96875 457.90625 258.089844 457.96875 258.195312 C 457.761719 258.328125 457.625 258.558594 457.625 258.820312 L 457.625 259.179688 C 457.320312 258.90625 457.132812 258.515625 457.132812 258.082031 C 457.132812 257.265625 457.792969 256.605469 458.609375 256.605469 C 459.421875 256.605469 460.085938 257.265625 460.085938 258.082031 C 460.085938 258.515625 459.894531 258.90625 459.59375 259.179688 Z M 469.929688 259.472656 C 469.773438 259.527344 469.609375 259.558594 469.4375 259.558594 C 469.261719 259.558594 469.097656 259.527344 468.945312 259.472656 L 468.945312 258.820312 C 468.945312 258.683594 469.054688 258.574219 469.191406 258.574219 L 469.683594 258.574219 C 469.816406 258.574219 469.929688 258.683594 469.929688 258.820312 Z M 469.191406 257.835938 C 469.191406 257.699219 469.300781 257.589844 469.4375 257.589844 C 469.570312 257.589844 469.683594 257.699219 469.683594 257.835938 C 469.683594 257.972656 469.570312 258.082031 469.4375 258.082031 C 469.300781 258.082031 469.191406 257.972656 469.191406 257.835938 Z M 469.4375 256.605469 C 470.25 256.605469 470.914062 257.265625 470.914062 258.082031 C 470.914062 258.515625 470.722656 258.90625 470.421875 259.179688 L 470.421875 258.820312 C 470.421875 258.558594 470.28125 258.328125 470.074219 258.195312 C 470.136719 258.089844 470.175781 257.96875 470.175781 257.835938 C 470.175781 257.429688 469.84375 257.097656 469.4375 257.097656 C 469.027344 257.097656 468.699219 257.429688 468.699219 257.835938 C 468.699219 257.96875 468.734375 258.089844 468.796875 258.195312 C 468.589844 258.328125 468.453125 258.558594 468.453125 258.820312 L 468.453125 259.179688 C 468.148438 258.910156 467.960938 258.515625 467.960938 258.082031 C 467.960938 257.265625 468.621094 256.605469 469.4375 256.605469 Z M 469.683594 251.929688 C 470.089844 251.929688 470.421875 252.261719 470.421875 252.667969 C 470.421875 253.074219 470.089844 253.40625 469.683594 253.40625 C 469.273438 253.40625 468.945312 253.074219 468.945312 252.667969 C 468.945312 252.261719 469.273438 251.929688 469.683594 251.929688 Z M 463.285156 247.007812 C 463.285156 246.601562 463.613281 246.269531 464.023438 246.269531 C 464.429688 246.269531 464.761719 246.601562 464.761719 247.007812 C 464.761719 247.414062 464.429688 247.746094 464.023438 247.746094 C 463.613281 247.746094 463.285156 247.414062 463.285156 247.007812 Z M 464.761719 258.328125 C 464.761719 258.734375 464.429688 259.066406 464.023438 259.066406 C 463.613281 259.066406 463.285156 258.734375 463.285156 258.328125 C 463.285156 257.921875 463.613281 257.589844 464.023438 257.589844 C 464.429688 257.589844 464.761719 257.921875 464.761719 258.328125 Z M 466.476562 252.390625 L 466.730469 252.390625 L 466.730469 252.941406 L 466.476562 252.941406 C 466.226562 252.941406 466 253.101562 465.914062 253.339844 C 465.894531 253.40625 465.867188 253.46875 465.839844 253.527344 C 465.730469 253.757812 465.773438 254.03125 465.953125 254.207031 L 466.128906 254.386719 L 465.742188 254.777344 L 465.5625 254.597656 C 465.386719 254.417969 465.113281 254.375 464.882812 254.484375 C 464.824219 254.511719 464.761719 254.539062 464.695312 254.5625 C 464.457031 254.644531 464.296875 254.871094 464.296875 255.121094 L 464.296875 255.375 L 463.746094 255.375 L 463.746094 255.121094 C 463.746094 254.871094 463.585938 254.644531 463.347656 254.5625 C 463.285156 254.539062 463.21875 254.511719 463.160156 254.484375 C 462.929688 254.375 462.65625 254.417969 462.480469 254.597656 L 462.300781 254.777344 L 461.914062 254.386719 L 462.09375 254.207031 C 462.269531 254.03125 462.316406 253.757812 462.207031 253.53125 C 462.175781 253.46875 462.148438 253.40625 462.128906 253.339844 C 462.042969 253.101562 461.816406 252.941406 461.566406 252.941406 L 461.316406 252.941406 L 461.316406 252.390625 L 461.566406 252.390625 C 461.816406 252.390625 462.042969 252.230469 462.128906 251.992188 C 462.148438 251.929688 462.175781 251.867188 462.203125 251.804688 C 462.3125 251.578125 462.269531 251.304688 462.09375 251.125 L 461.914062 250.949219 L 462.300781 250.558594 L 462.480469 250.738281 C 462.65625 250.914062 462.929688 250.960938 463.160156 250.851562 C 463.21875 250.824219 463.28125 250.796875 463.347656 250.773438 C 463.585938 250.6875 463.746094 250.464844 463.746094 250.214844 L 463.746094 249.960938 L 464.296875 249.960938 L 464.296875 250.214844 C 464.296875 250.464844 464.457031 250.6875 464.695312 250.773438 C 464.757812 250.796875 464.824219 250.820312 464.882812 250.851562 C 465.113281 250.960938 465.386719 250.914062 465.5625 250.738281 L 465.742188 250.558594 L 466.128906 250.945312 L 465.949219 251.125 C 465.773438 251.304688 465.730469 251.578125 465.835938 251.804688 C 465.867188 251.867188 465.894531 251.929688 465.914062 251.992188 C 466 252.230469 466.226562 252.390625 466.476562 252.390625 Z M 469.929688 248.644531 C 469.773438 248.699219 469.609375 248.730469 469.4375 248.730469 C 469.261719 248.730469 469.097656 248.699219 468.945312 248.644531 L 468.945312 247.992188 C 468.945312 247.855469 469.054688 247.746094 469.191406 247.746094 L 469.683594 247.746094 C 469.816406 247.746094 469.929688 247.855469 469.929688 247.992188 Z M 469.191406 247.007812 C 469.191406 246.871094 469.300781 246.761719 469.4375 246.761719 C 469.570312 246.761719 469.683594 246.871094 469.683594 247.007812 C 469.683594 247.144531 469.570312 247.253906 469.4375 247.253906 C 469.300781 247.253906 469.191406 247.144531 469.191406 247.007812 Z M 469.4375 245.777344 C 470.25 245.777344 470.914062 246.4375 470.914062 247.253906 C 470.914062 247.6875 470.722656 248.078125 470.421875 248.351562 L 470.421875 247.992188 C 470.421875 247.730469 470.28125 247.5 470.074219 247.367188 C 470.136719 247.261719 470.175781 247.140625 470.175781 247.007812 C 470.175781 246.601562 469.84375 246.269531 469.4375 246.269531 C 469.027344 246.269531 468.699219 246.601562 468.699219 247.007812 C 468.699219 247.140625 468.734375 247.261719 468.796875 247.367188 C 468.589844 247.5 468.453125 247.730469 468.453125 247.992188 L 468.453125 248.351562 C 468.148438 248.082031 467.960938 247.6875 467.960938 247.253906 C 467.960938 246.4375 468.621094 245.777344 469.4375 245.777344 Z M 469.4375 245.777344 " fill-opacity="1" fill-rule="nonzero"/></g></g><path fill="#36496d" d="M 344.605469 550.867188 L 27.304688 550.867188 C 62.445312 641.773438 129.433594 716.777344 214.59375 762.253906 L 425.976562 550.867188 Z M 344.605469 550.867188 " fill-opacity="1" fill-rule="evenodd"/><path fill="#ffffff" d="M 214.636719 762.566406 L 214.503906 762.476562 C 128.675781 716.644531 62.089844 641.507812 27.082031 550.957031 L 26.945312 550.644531 L 426.511719 550.644531 Z M 27.660156 551.089844 C 62.621094 641.371094 128.988281 716.242188 214.546875 761.984375 L 425.445312 551.089844 Z M 27.660156 551.089844 " fill-opacity="1" fill-rule="nonzero"/><path fill="#36496d" d="M 465.394531 550.867188 L 241.050781 775.214844 C 291.15625 797.441406 346.609375 809.777344 404.957031 809.777344 C 446.019531 809.777344 485.617188 803.675781 522.941406 792.316406 L 522.941406 493.324219 Z M 465.394531 550.867188 " fill-opacity="1" fill-rule="evenodd"/><path fill="#ffffff" d="M 405 810 C 347.945312 810 292.761719 798.375 241.003906 775.4375 L 240.691406 775.304688 L 240.914062 775.082031 L 465.21875 550.734375 L 465.394531 550.914062 L 465.21875 550.734375 L 523.164062 492.742188 L 523.164062 792.496094 L 522.984375 792.539062 C 484.90625 804.121094 445.175781 810 405 810 Z M 241.496094 775.125 C 293.117188 797.972656 348.121094 809.554688 405 809.554688 C 445.085938 809.554688 484.726562 803.71875 522.761719 792.140625 L 522.761719 493.855469 Z M 241.496094 775.125 " fill-opacity="1" fill-rule="nonzero"/><path fill="#36496d" d="M 550.867188 465.394531 L 550.867188 782.695312 C 641.773438 747.554688 716.777344 680.566406 762.253906 595.40625 L 550.867188 384.023438 Z M 550.867188 465.394531 " fill-opacity="1" fill-rule="evenodd"/><path fill="#ffffff" d="M 550.644531 783.007812 L 550.644531 383.488281 L 551.046875 383.886719 L 762.566406 595.40625 L 762.476562 595.542969 C 716.644531 681.371094 641.507812 747.910156 550.957031 782.917969 Z M 551.089844 384.554688 L 551.089844 782.386719 C 641.371094 747.421875 716.242188 681.058594 761.984375 595.496094 Z M 551.089844 384.554688 " fill-opacity="1" fill-rule="nonzero"/><path fill="#36496d" d="M 550.867188 344.605469 L 775.214844 568.949219 C 797.441406 518.84375 809.777344 463.390625 809.777344 405.042969 C 809.777344 363.980469 803.675781 324.382812 792.273438 287.058594 L 493.277344 287.058594 Z M 550.867188 344.605469 " fill-opacity="1" fill-rule="evenodd"/><path fill="#ffffff" d="M 775.257812 569.308594 L 492.742188 286.792969 L 792.453125 286.792969 L 792.496094 286.96875 C 804.121094 325.097656 810 364.824219 810 405.042969 C 810 462.101562 798.375 517.285156 775.4375 569.039062 Z M 493.855469 287.238281 L 775.167969 568.550781 C 798.019531 516.929688 809.597656 461.921875 809.597656 405.042969 C 809.597656 364.914062 803.71875 325.320312 792.183594 287.28125 L 493.855469 287.28125 Z M 493.855469 287.238281 " fill-opacity="1" fill-rule="nonzero"/><path fill="#36496d" d="M 465.394531 259.132812 L 782.652344 259.132812 C 747.511719 168.226562 680.523438 93.222656 595.363281 47.746094 L 384.023438 259.132812 Z M 465.394531 259.132812 " fill-opacity="1" fill-rule="evenodd"/><path fill="#ffffff" d="M 783.007812 259.355469 L 383.488281 259.355469 L 595.363281 47.433594 L 595.496094 47.523438 C 681.324219 93.355469 747.910156 168.492188 782.917969 259.042969 Z M 384.554688 258.910156 L 782.339844 258.910156 C 747.378906 168.671875 680.96875 93.757812 595.40625 48.015625 Z M 384.554688 258.910156 " fill-opacity="1" fill-rule="nonzero"/><path fill="#36496d" d="M 344.605469 259.132812 L 568.949219 34.785156 C 518.84375 12.558594 463.390625 0.222656 405.042969 0.222656 C 363.980469 0.222656 324.382812 6.324219 287.058594 17.726562 L 287.058594 316.722656 Z M 344.605469 259.132812 " fill-opacity="1" fill-rule="evenodd"/><path fill="#ffffff" d="M 286.792969 317.257812 L 286.792969 17.546875 L 286.96875 17.503906 C 325.050781 5.878906 364.78125 0 405.042969 0 C 462.101562 0 517.285156 11.625 569.039062 34.5625 L 569.351562 34.695312 L 569.128906 34.917969 Z M 287.238281 17.90625 L 287.238281 316.1875 L 344.425781 259 L 344.605469 259.175781 L 344.425781 259 L 568.503906 34.875 C 516.882812 12.027344 461.878906 0.445312 405 0.445312 C 364.871094 0.445312 325.230469 6.324219 287.238281 17.90625 Z M 287.238281 17.90625 " fill-opacity="1" fill-rule="nonzero"/><path fill="#36496d" d="M 259.132812 344.605469 L 259.132812 27.304688 C 168.226562 62.445312 93.222656 129.433594 47.746094 214.59375 L 259.132812 425.976562 Z M 259.132812 344.605469 " fill-opacity="1" fill-rule="evenodd"/><path fill="#ffffff" d="M 259.355469 426.511719 L 258.953125 426.113281 L 47.433594 214.636719 L 47.523438 214.503906 C 93.398438 128.675781 168.492188 62.132812 259.042969 27.125 L 259.355469 26.992188 Z M 48.015625 214.546875 L 258.910156 425.445312 L 258.910156 27.660156 C 168.628906 62.621094 93.757812 128.988281 48.015625 214.546875 Z M 48.015625 214.546875 " fill-opacity="1" fill-rule="nonzero"/><path fill="#36496d" d="M 259.132812 465.394531 L 34.785156 241.09375 C 12.558594 291.199219 0.222656 346.652344 0.222656 405 C 0.222656 446.066406 6.324219 485.660156 17.683594 522.984375 L 316.675781 522.984375 Z M 259.132812 465.394531 " fill-opacity="1" fill-rule="evenodd"/><path fill="#ffffff" d="M 317.210938 523.207031 L 17.503906 523.207031 L 17.460938 523.03125 C 5.878906 484.90625 0 445.175781 0 404.957031 C 0 347.898438 11.625 292.714844 34.5625 240.960938 L 34.695312 240.648438 L 34.917969 240.871094 L 259.265625 465.171875 Z M 17.859375 522.761719 L 316.144531 522.761719 L 258.953125 465.574219 L 34.875 241.496094 C 12.027344 293.117188 0.445312 348.121094 0.445312 405 C 0.445312 445.128906 6.324219 484.726562 17.859375 522.761719 Z M 17.859375 522.761719 " fill-opacity="1" fill-rule="nonzero"/></svg>