<svg xmlns="http://www.w3.org/2000/svg" xmlns:xlink="http://www.w3.org/1999/xlink" width="3000" zoomAndPan="magnify" viewBox="0 0 2250 2250.000011" height="3000" preserveAspectRatio="xMidYMid meet" version="1.0"><defs><g/></defs><g fill="#000000" fill-opacity="1"><g transform="translate(7.047643, 1432.141676)"><g><path d="M 207.46875 -691.203125 C 205.40625 -691.890625 206.085938 -692.570312 209.515625 -693.25 C 214.304688 -693.9375 228.851562 -694.28125 253.15625 -694.28125 C 277.46875 -694.28125 309.820312 -694.28125 350.21875 -694.28125 L 504.28125 -694.28125 L 511.46875 -673.75 C 514.894531 -659.363281 521.054688 -637.789062 529.953125 -609.03125 C 535.429688 -591.226562 539.878906 -576.164062 543.296875 -563.84375 C 546.722656 -551.519531 549.125 -541.9375 550.5 -535.09375 C 551.1875 -530.976562 556.320312 -513.175781 565.90625 -481.6875 C 575.488281 -450.875 582.675781 -426.222656 587.46875 -407.734375 C 595 -382.398438 602.1875 -357.75 609.03125 -333.78125 C 615.882812 -309.820312 622.734375 -286.890625 629.578125 -264.984375 C 630.953125 -260.179688 632.664062 -254.1875 634.71875 -247 C 636.769531 -239.8125 639.507812 -231.425781 642.9375 -221.84375 C 645.675781 -212.257812 647.726562 -204.554688 649.09375 -198.734375 C 650.457031 -192.910156 651.484375 -188.972656 652.171875 -186.921875 C 652.859375 -185.554688 653.710938 -182.472656 654.734375 -177.671875 C 655.765625 -172.878906 657.648438 -166.71875 660.390625 -159.1875 C 665.867188 -143.4375 668.953125 -132.484375 669.640625 -126.328125 C 670.316406 -124.273438 671.335938 -120.507812 672.703125 -115.03125 C 674.078125 -109.550781 675.617188 -103.898438 677.328125 -98.078125 C 679.046875 -92.265625 680.757812 -86.957031 682.46875 -82.15625 C 684.1875 -77.363281 685.046875 -74.285156 685.046875 -72.921875 C 685.722656 -72.234375 688.117188 -64.359375 692.234375 -49.296875 C 692.910156 -46.554688 694.445312 -40.90625 696.84375 -32.34375 C 699.25 -23.789062 701.816406 -15.234375 704.546875 -6.671875 C 707.285156 1.878906 709.679688 9.75 711.734375 16.9375 C 713.796875 24.132812 715.171875 28.070312 715.859375 28.75 C 715.859375 31.488281 716.882812 36.28125 718.9375 43.125 C 720.988281 49.976562 722.695312 54.429688 724.0625 56.484375 C 724.75 60.597656 725.4375 64.191406 726.125 67.265625 C 726.8125 70.347656 727.492188 72.914062 728.171875 74.96875 C 728.859375 75.65625 727.832031 76.34375 725.09375 77.03125 C 722.351562 77.71875 712.9375 78.0625 696.84375 78.0625 C 680.757812 78.0625 659.363281 78.0625 632.65625 78.0625 L 526.875 78.0625 L 522.765625 65.734375 C 521.398438 62.304688 520.03125 58.023438 518.65625 52.890625 C 517.289062 47.753906 515.921875 41.765625 514.546875 34.921875 C 514.546875 33.546875 513.859375 30.460938 512.484375 25.671875 C 511.117188 20.878906 509.410156 14.71875 507.359375 7.1875 C 504.617188 -0.34375 502.394531 -7.359375 500.6875 -13.859375 C 498.976562 -20.367188 497.4375 -26.363281 496.0625 -31.84375 L 483.734375 -81.140625 L 251.625 -81.140625 L 249.578125 -73.953125 C 243.410156 -52.035156 237.757812 -31.148438 232.625 -11.296875 C 227.488281 8.554688 222.867188 27.039062 218.765625 44.15625 L 209.515625 78.0625 L 104.765625 78.0625 C 77.367188 77.375 55.625 76.859375 39.53125 76.515625 C 23.445312 76.171875 15.40625 75.65625 15.40625 74.96875 C 35.257812 12.664062 54.085938 -49.804688 71.890625 -112.453125 C 89.691406 -175.109375 107.148438 -238.273438 124.265625 -301.953125 C 124.265625 -303.316406 125.632812 -308.617188 128.375 -317.859375 C 131.113281 -327.109375 133.171875 -334.472656 134.546875 -339.953125 C 137.960938 -350.222656 141.039062 -360.492188 143.78125 -370.765625 C 146.519531 -381.035156 149.257812 -391.648438 152 -402.609375 C 154.738281 -412.191406 157.648438 -422.800781 160.734375 -434.4375 C 163.816406 -446.082031 167.410156 -458.75 171.515625 -472.4375 C 172.203125 -474.488281 173.226562 -478.425781 174.59375 -484.25 C 175.96875 -490.070312 177.507812 -496.234375 179.21875 -502.734375 C 180.925781 -509.242188 182.632812 -515.40625 184.34375 -521.21875 C 186.0625 -527.039062 186.921875 -530.640625 186.921875 -532.015625 C 188.296875 -535.429688 189.664062 -539.535156 191.03125 -544.328125 C 192.394531 -549.128906 194.109375 -554.953125 196.171875 -561.796875 C 199.585938 -575.484375 201.640625 -583.359375 202.328125 -585.421875 C 203.691406 -588.835938 205.226562 -594.65625 206.9375 -602.875 C 208.65625 -611.09375 211.226562 -621.363281 214.65625 -633.6875 C 220.132812 -650.125 222.875 -660.394531 222.875 -664.5 C 222.875 -676.820312 217.738281 -685.722656 207.46875 -691.203125 Z M 381.03125 -470.390625 C 372.8125 -503.253906 368.019531 -519.6875 366.65625 -519.6875 C 365.289062 -515.582031 362.207031 -502.570312 357.40625 -480.65625 C 356.039062 -475.175781 354.332031 -467.816406 352.28125 -458.578125 C 350.226562 -449.335938 347.488281 -437.867188 344.0625 -424.171875 C 342.6875 -420.066406 340.285156 -410.476562 336.859375 -395.40625 C 333.441406 -380.34375 329.679688 -364.597656 325.578125 -348.171875 C 320.097656 -328.992188 314.617188 -308.109375 309.140625 -285.515625 C 302.296875 -258.128906 298.875 -243.410156 298.875 -241.359375 C 298.875 -239.984375 322.492188 -239.296875 369.734375 -239.296875 L 440.609375 -239.296875 L 438.546875 -249.578125 C 433.066406 -271.484375 425.535156 -300.75 415.953125 -337.375 C 406.367188 -374.007812 394.726562 -418.347656 381.03125 -470.390625 Z M 381.03125 -470.390625 "/></g></g></g><g fill="#000000" fill-opacity="1"><g transform="translate(751.658295, 1432.141676)"><g><path d="M 441.625 -522.765625 L 451.90625 -522.765625 L 450.875 -436.5 L 450.875 -330.703125 L 434.4375 -331.734375 C 398.832031 -333.785156 368.363281 -328.304688 343.03125 -315.296875 C 328.65625 -307.765625 315.816406 -294.410156 304.515625 -275.234375 C 293.222656 -256.066406 285.519531 -233.816406 281.40625 -208.484375 C 279.351562 -198.210938 278.328125 -147.890625 278.328125 -57.515625 L 278.328125 78.0625 L 71.890625 78.0625 L 71.890625 -208.484375 C 71.890625 -305.023438 71.71875 -376.578125 71.375 -423.140625 C 71.03125 -469.703125 70.175781 -493.664062 68.8125 -495.03125 C 65.382812 -502.5625 60.59375 -507.695312 54.4375 -510.4375 C 53.75 -511.125 54.085938 -511.8125 55.453125 -512.5 C 58.878906 -513.1875 69.664062 -513.53125 87.8125 -513.53125 C 105.957031 -513.53125 131.460938 -513.53125 164.328125 -513.53125 L 278.328125 -513.53125 L 278.328125 -412.875 L 285.515625 -427.25 C 298.523438 -458.0625 319.578125 -481.679688 348.671875 -498.109375 C 377.773438 -514.546875 408.757812 -522.765625 441.625 -522.765625 Z M 441.625 -522.765625 "/></g></g></g><g fill="#000000" fill-opacity="1"><g transform="translate(1217.938682, 1432.141676)"><g><path d="M 72.921875 -728.171875 L 277.296875 -728.171875 L 277.296875 -571.03125 L 72.921875 -571.03125 Z M 55.453125 -511.46875 C 54.085938 -512.84375 53.742188 -513.359375 54.421875 -513.015625 C 55.109375 -512.671875 56.140625 -512.5 57.515625 -512.5 C 60.941406 -513.1875 71.210938 -513.53125 88.328125 -513.53125 C 105.441406 -513.53125 130.085938 -513.53125 162.265625 -513.53125 L 275.25 -513.53125 L 275.25 78.0625 L 72.921875 78.0625 L 72.921875 -239.296875 C 72.921875 -303.660156 72.921875 -354.328125 72.921875 -391.296875 C 72.921875 -428.273438 72.578125 -452.242188 71.890625 -463.203125 C 70.523438 -485.109375 68.128906 -498.457031 64.703125 -503.25 C 62.648438 -506.675781 59.566406 -509.414062 55.453125 -511.46875 Z M 55.453125 -511.46875 "/></g></g></g><g fill="#000000" fill-opacity="1"><g transform="translate(1565.081259, 1432.141676)"><g><path d="M 348.171875 -519.6875 L 366.65625 -518.65625 C 407.738281 -516.601562 444.539062 -508.046875 477.0625 -492.984375 C 509.582031 -477.921875 537.3125 -457.722656 560.25 -432.390625 C 583.1875 -407.054688 600.988281 -377.613281 613.65625 -344.0625 C 626.320312 -310.507812 633.679688 -273.878906 635.734375 -234.171875 C 638.472656 -170.492188 627.175781 -112.632812 601.84375 -60.59375 C 566.238281 11.300781 507.695312 56.488281 426.21875 74.96875 C 401.570312 81.820312 378.976562 85.25 358.4375 85.25 L 350.21875 85.25 L 349.203125 54.4375 C 349.878906 43.476562 350.21875 32.347656 350.21875 21.046875 C 350.21875 9.753906 350.21875 -2.394531 350.21875 -15.40625 C 350.21875 -41.425781 350.90625 -54.4375 352.28125 -54.4375 C 363.226562 -54.4375 375.894531 -59.570312 390.28125 -69.84375 C 416.300781 -84.90625 433.078125 -117.769531 440.609375 -168.4375 C 441.285156 -173.914062 441.796875 -180.929688 442.140625 -189.484375 C 442.484375 -198.046875 442.3125 -208.144531 441.625 -219.78125 C 440.945312 -232.113281 440.265625 -242.382812 439.578125 -250.59375 C 438.890625 -258.8125 437.863281 -265.660156 436.5 -271.140625 C 432.382812 -296.472656 424.675781 -318.550781 413.375 -337.375 C 402.082031 -356.207031 382.398438 -368.019531 354.328125 -372.8125 L 348.171875 -373.84375 Z M 285.515625 -517.625 C 288.941406 -518.3125 292.878906 -518.65625 297.328125 -518.65625 C 301.773438 -518.65625 306.738281 -519 312.21875 -519.6875 L 325.578125 -519.6875 L 325.578125 -457.03125 C 325.578125 -437.175781 325.578125 -421.085938 325.578125 -408.765625 C 325.578125 -396.441406 325.234375 -387.882812 324.546875 -383.09375 L 324.546875 -373.84375 L 313.25 -370.765625 C 281.070312 -365.285156 259.160156 -344.742188 247.515625 -309.140625 C 242.035156 -293.390625 238.609375 -275.414062 237.234375 -255.21875 C 235.867188 -235.019531 235.875 -212.941406 237.25 -188.984375 C 238.613281 -175.972656 240.320312 -162.789062 242.375 -149.4375 C 244.4375 -136.082031 248.203125 -123.414062 253.671875 -111.4375 C 259.148438 -99.457031 266.335938 -89.1875 275.234375 -80.625 C 284.140625 -72.0625 295.785156 -65.726562 310.171875 -61.625 L 323.515625 -58.546875 L 324.546875 12.328125 L 324.546875 83.1875 L 305.03125 83.1875 C 250.257812 83.1875 200.617188 68.125 156.109375 38 C 92.429688 -5.132812 55.113281 -75.660156 44.15625 -173.578125 C 34.570312 -252.992188 46.898438 -322.832031 81.140625 -383.09375 C 101.679688 -420.0625 130.09375 -450.523438 166.375 -474.484375 C 202.664062 -498.453125 242.378906 -512.832031 285.515625 -517.625 Z M 285.515625 -517.625 "/></g></g></g></svg>